<svg width="744" height="276" viewBox="0 0 744 276" fill="none" xmlns="http://www.w3.org/2000/svg">
<mask id="path-1-outside-1_450_422" maskUnits="userSpaceOnUse" x="0" y="59" width="152" height="152" fill="black">
<rect fill="white" y="59" width="152" height="152"/>
<path d="M85.5762 210V60.9717H133.306V160.137H150.151V189.224H133.306V210H85.5762ZM13.252 189.224L1.45996 161.597L77.7148 71.0791V130.039L50.6494 160.137H77.7148V189.224H13.252Z"/>
</mask>
<path d="M85.5762 210V60.9717H133.306V160.137H150.151V189.224H133.306V210H85.5762ZM13.252 189.224L1.45996 161.597L77.7148 71.0791V130.039L50.6494 160.137H77.7148V189.224H13.252Z" fill="white"/>
<path d="M85.5762 210H84.5762V211H85.5762V210ZM85.5762 60.9717V59.9717H84.5762V60.9717H85.5762ZM133.306 60.9717H134.306V59.9717H133.306V60.9717ZM133.306 160.137H132.306V161.137H133.306V160.137ZM150.151 160.137H151.151V159.137H150.151V160.137ZM150.151 189.224V190.224H151.151V189.224H150.151ZM133.306 189.224V188.224H132.306V189.224H133.306ZM133.306 210V211H134.306V210H133.306ZM13.252 189.224L12.3322 189.616L12.5915 190.224H13.252V189.224ZM1.45996 161.597L0.695173 160.952L0.298606 161.423L0.540237 161.989L1.45996 161.597ZM77.7148 71.0791H78.7148V68.3399L76.9501 70.4348L77.7148 71.0791ZM77.7148 130.039L78.4584 130.708L78.7148 130.423V130.039H77.7148ZM50.6494 160.137L49.9058 159.468L48.4053 161.137H50.6494V160.137ZM77.7148 160.137H78.7148V159.137H77.7148V160.137ZM77.7148 189.224V190.224H78.7148V189.224H77.7148ZM86.5762 210V60.9717H84.5762V210H86.5762ZM85.5762 61.9717H133.306V59.9717H85.5762V61.9717ZM132.306 60.9717V160.137H134.306V60.9717H132.306ZM133.306 161.137H150.151V159.137H133.306V161.137ZM149.151 160.137V189.224H151.151V160.137H149.151ZM150.151 188.224H133.306V190.224H150.151V188.224ZM132.306 189.224V210H134.306V189.224H132.306ZM133.306 209H85.5762V211H133.306V209ZM14.1717 188.831L2.37969 161.204L0.540237 161.989L12.3322 189.616L14.1717 188.831ZM2.22475 162.241L78.4796 71.7234L76.9501 70.4348L0.695173 160.952L2.22475 162.241ZM76.7148 71.0791V130.039H78.7148V71.0791H76.7148ZM76.9713 129.37L49.9058 159.468L51.393 160.805L78.4584 130.708L76.9713 129.37ZM50.6494 161.137H77.7148V159.137H50.6494V161.137ZM76.7148 160.137V189.224H78.7148V160.137H76.7148ZM77.7148 188.224H13.252V190.224H77.7148V188.224Z" fill="white" mask="url(#path-1-outside-1_450_422)"/>
<rect x="202" y="95" width="335" height="86" rx="43" stroke="white" stroke-width="30"/>
<mask id="path-4-outside-2_450_422" maskUnits="userSpaceOnUse" x="584" y="59" width="152" height="152" fill="black">
<rect fill="white" x="584" y="59" width="152" height="152"/>
<path d="M669.576 210V60.9717H717.306V160.137H734.151V189.224H717.306V210H669.576ZM597.252 189.224L585.46 161.597L661.715 71.0791V130.039L634.649 160.137H661.715V189.224H597.252Z"/>
</mask>
<path d="M669.576 210V60.9717H717.306V160.137H734.151V189.224H717.306V210H669.576ZM597.252 189.224L585.46 161.597L661.715 71.0791V130.039L634.649 160.137H661.715V189.224H597.252Z" fill="white"/>
<path d="M669.576 210H668.576V211H669.576V210ZM669.576 60.9717V59.9717H668.576V60.9717H669.576ZM717.306 60.9717H718.306V59.9717H717.306V60.9717ZM717.306 160.137H716.306V161.137H717.306V160.137ZM734.151 160.137H735.151V159.137H734.151V160.137ZM734.151 189.224V190.224H735.151V189.224H734.151ZM717.306 189.224V188.224H716.306V189.224H717.306ZM717.306 210V211H718.306V210H717.306ZM597.252 189.224L596.332 189.616L596.592 190.224H597.252V189.224ZM585.46 161.597L584.695 160.952L584.299 161.423L584.54 161.989L585.46 161.597ZM661.715 71.0791H662.715V68.3399L660.95 70.4348L661.715 71.0791ZM661.715 130.039L662.458 130.708L662.715 130.423V130.039H661.715ZM634.649 160.137L633.906 159.468L632.405 161.137H634.649V160.137ZM661.715 160.137H662.715V159.137H661.715V160.137ZM661.715 189.224V190.224H662.715V189.224H661.715ZM670.576 210V60.9717H668.576V210H670.576ZM669.576 61.9717H717.306V59.9717H669.576V61.9717ZM716.306 60.9717V160.137H718.306V60.9717H716.306ZM717.306 161.137H734.151V159.137H717.306V161.137ZM733.151 160.137V189.224H735.151V160.137H733.151ZM734.151 188.224H717.306V190.224H734.151V188.224ZM716.306 189.224V210H718.306V189.224H716.306ZM717.306 209H669.576V211H717.306V209ZM598.172 188.831L586.38 161.204L584.54 161.989L596.332 189.616L598.172 188.831ZM586.225 162.241L662.48 71.7234L660.95 70.4348L584.695 160.952L586.225 162.241ZM660.715 71.0791V130.039H662.715V71.0791H660.715ZM660.971 129.37L633.906 159.468L635.393 160.805L662.458 130.708L660.971 129.37ZM634.649 161.137H661.715V159.137H634.649V161.137ZM660.715 160.137V189.224H662.715V160.137H660.715ZM661.715 188.224H597.252V190.224H661.715V188.224Z" fill="white" mask="url(#path-4-outside-2_450_422)"/>
</svg>
