<svg width="63" height="13" viewBox="0 0 63 13" fill="none" xmlns="http://www.w3.org/2000/svg">
<path d="M4.056 10.776L0.24 6.96L4.056 3.144L5.096 4.184L2.264 6.96L5.096 9.736L4.056 10.776ZM10.6301 12V3.056C10.6301 2.83733 10.6381 2.60533 10.6541 2.36C10.6701 2.10933 10.7155 1.864 10.7901 1.624C10.8701 1.37867 11.0008 1.15467 11.1821 0.952C11.4008 0.711999 11.6408 0.541333 11.9021 0.44C12.1635 0.338666 12.4221 0.279999 12.6781 0.263999C12.9395 0.248 13.1795 0.24 13.3981 0.24H14.4861V1.616H13.4781C13.0835 1.616 12.7875 1.71467 12.5901 1.912C12.3981 2.104 12.3021 2.37867 12.3021 2.736V12H10.6301ZM9.19813 4.704V3.36H14.4861V4.704H9.19813ZM19.8395 12.24C18.9755 12.24 18.2262 12.0453 17.5915 11.656C16.9568 11.2667 16.4662 10.7307 16.1195 10.048C15.7782 9.36 15.6075 8.568 15.6075 7.672C15.6075 6.77067 15.7835 5.97867 16.1355 5.296C16.4875 4.608 16.9808 4.07467 17.6155 3.696C18.2502 3.312 18.9915 3.12 19.8395 3.12C20.7035 3.12 21.4528 3.31467 22.0875 3.704C22.7222 4.09333 23.2128 4.62933 23.5595 5.312C23.9062 5.99467 24.0795 6.78133 24.0795 7.672C24.0795 8.57333 23.9035 9.368 23.5515 10.056C23.2048 10.7387 22.7142 11.2747 22.0795 11.664C21.4448 12.048 20.6982 12.24 19.8395 12.24ZM19.8395 10.664C20.6662 10.664 21.2822 10.3867 21.6875 9.832C22.0982 9.272 22.3035 8.552 22.3035 7.672C22.3035 6.77067 22.0955 6.05067 21.6795 5.512C21.2688 4.968 20.6555 4.696 19.8395 4.696C19.2795 4.696 18.8182 4.824 18.4555 5.08C18.0928 5.33067 17.8235 5.68 17.6475 6.128C17.4715 6.57067 17.3835 7.08533 17.3835 7.672C17.3835 8.57867 17.5915 9.304 18.0075 9.848C18.4235 10.392 19.0342 10.664 19.8395 10.664ZM26.4775 12V3.36H27.9655V5.456L27.7575 5.184C27.8642 4.90667 28.0028 4.65333 28.1735 4.424C28.3442 4.18933 28.5415 3.99733 28.7655 3.848C28.9842 3.688 29.2268 3.56533 29.4935 3.48C29.7655 3.38933 30.0428 3.336 30.3255 3.32C30.6082 3.29867 30.8802 3.312 31.1415 3.36V4.928C30.8588 4.85333 30.5442 4.832 30.1975 4.864C29.8562 4.896 29.5415 5.00533 29.2535 5.192C28.9815 5.368 28.7655 5.58133 28.6055 5.832C28.4508 6.08267 28.3388 6.36267 28.2695 6.672C28.2002 6.976 28.1655 7.29867 28.1655 7.64V12H26.4775ZM43.657 12L43.665 6.616C43.665 5.992 43.505 5.50667 43.185 5.16C42.865 4.808 42.4437 4.632 41.921 4.632C41.601 4.632 41.3077 4.70667 41.041 4.856C40.7797 5 40.5663 5.21867 40.401 5.512C40.241 5.8 40.161 6.16267 40.161 6.6L39.353 6.192C39.3423 5.584 39.4703 5.05067 39.737 4.592C40.009 4.13333 40.377 3.77867 40.841 3.528C41.305 3.272 41.825 3.144 42.401 3.144C43.3343 3.144 44.057 3.424 44.569 3.984C45.081 4.544 45.337 5.288 45.337 6.216L45.329 12H43.657ZM33.297 12V3.36H34.785V5.856H34.977V12H33.297ZM38.481 12L38.489 6.648C38.489 6.01867 38.329 5.52533 38.009 5.168C37.6943 4.81067 37.2703 4.632 36.737 4.632C36.209 4.632 35.7823 4.81333 35.457 5.176C35.137 5.53867 34.977 6.01333 34.977 6.6L34.177 6.088C34.177 5.52267 34.313 5.01867 34.585 4.576C34.857 4.13333 35.225 3.784 35.689 3.528C36.153 3.272 36.6783 3.144 37.265 3.144C37.8783 3.144 38.401 3.27467 38.833 3.536C39.265 3.792 39.593 4.152 39.817 4.616C40.0463 5.08 40.161 5.61867 40.161 6.232L40.153 12H38.481ZM50.9664 0.48H52.6544L49.5824 12H47.8944L50.9664 0.48ZM58.2859 10.776L57.2379 9.736L60.0779 6.96L57.2379 4.184L58.2859 3.144L62.0939 6.96L58.2859 10.776Z" fill="white"/>
</svg>
