<svg width="42" height="12" viewBox="0 0 42 12" fill="none" xmlns="http://www.w3.org/2000/svg">
<path d="M4.056 10.776L0.24 6.96L4.056 3.144L5.096 4.184L2.264 6.96L5.096 9.736L4.056 10.776ZM15.9021 12V7.752C15.9021 7.416 15.8728 7.072 15.8141 6.72C15.7608 6.36267 15.6541 6.032 15.4941 5.728C15.3395 5.424 15.1181 5.17867 14.8301 4.992C14.5475 4.80533 14.1768 4.712 13.7181 4.712C13.4195 4.712 13.1368 4.76267 12.8701 4.864C12.6035 4.96 12.3688 5.11733 12.1661 5.336C11.9688 5.55467 11.8115 5.84267 11.6941 6.2C11.5821 6.55733 11.5261 6.992 11.5261 7.504L10.4861 7.112C10.4861 6.328 10.6328 5.63733 10.9261 5.04C11.2195 4.43733 11.6408 3.968 12.1901 3.632C12.7395 3.296 13.4035 3.128 14.1821 3.128C14.7795 3.128 15.2808 3.224 15.6861 3.416C16.0915 3.608 16.4195 3.86133 16.6701 4.176C16.9261 4.48533 17.1208 4.824 17.2541 5.192C17.3875 5.56 17.4781 5.92 17.5261 6.272C17.5741 6.624 17.5981 6.93333 17.5981 7.2V12H15.9021ZM9.83013 12V0.48H11.3261V6.696H11.5261V12H9.83013ZM22.3299 12V2.32L20.1619 3.64V1.776L22.3299 0.48H24.0339V12H22.3299ZM30.6239 0.48H32.3119L29.2399 12H27.5519L30.6239 0.48ZM37.9434 10.776L36.8954 9.736L39.7354 6.96L36.8954 4.184L37.9434 3.144L41.7514 6.96L37.9434 10.776Z" fill="white"/>
</svg>
