<svg width="45" height="12" viewBox="0 0 45 12" fill="none" xmlns="http://www.w3.org/2000/svg">
<path d="M4.056 10.776L0.24 6.96L4.056 3.144L5.096 4.184L2.264 6.96L5.096 9.736L4.056 10.776ZM15.9021 12V7.752C15.9021 7.416 15.8728 7.072 15.8141 6.72C15.7608 6.36267 15.6541 6.032 15.4941 5.728C15.3395 5.424 15.1181 5.17867 14.8301 4.992C14.5475 4.80533 14.1768 4.712 13.7181 4.712C13.4195 4.712 13.1368 4.76267 12.8701 4.864C12.6035 4.96 12.3688 5.11733 12.1661 5.336C11.9688 5.55467 11.8115 5.84267 11.6941 6.2C11.5821 6.55733 11.5261 6.992 11.5261 7.504L10.4861 7.112C10.4861 6.328 10.6328 5.63733 10.9261 5.04C11.2195 4.43733 11.6408 3.968 12.1901 3.632C12.7395 3.296 13.4035 3.128 14.1821 3.128C14.7795 3.128 15.2808 3.224 15.6861 3.416C16.0915 3.608 16.4195 3.86133 16.6701 4.176C16.9261 4.48533 17.1208 4.824 17.2541 5.192C17.3875 5.56 17.4781 5.92 17.5261 6.272C17.5741 6.624 17.5981 6.93333 17.5981 7.2V12H15.9021ZM9.83013 12V0.48H11.3261V6.696H11.5261V12H9.83013ZM20.0019 11.992L20.0099 10.504L25.0259 6.008C25.4312 5.65067 25.7059 5.30933 25.8499 4.984C25.9992 4.65867 26.0739 4.33333 26.0739 4.008C26.0739 3.59733 25.9832 3.22933 25.8019 2.904C25.6205 2.57333 25.3699 2.312 25.0499 2.12C24.7299 1.928 24.3619 1.832 23.9459 1.832C23.5192 1.832 23.1379 1.93333 22.8019 2.136C22.4712 2.33333 22.2125 2.59733 22.0259 2.928C21.8392 3.25867 21.7485 3.616 21.7539 4H20.0419C20.0419 3.25333 20.2099 2.6 20.5459 2.04C20.8872 1.47467 21.3539 1.03467 21.9459 0.719999C22.5379 0.4 23.2152 0.24 23.9779 0.24C24.7032 0.24 25.3539 0.405333 25.9299 0.735999C26.5059 1.06133 26.9592 1.50933 27.2899 2.08C27.6259 2.65067 27.7939 3.30133 27.7939 4.032C27.7939 4.56 27.7245 5.008 27.5859 5.376C27.4472 5.744 27.2392 6.08533 26.9619 6.4C26.6845 6.71467 26.3379 7.056 25.9219 7.424L22.0499 10.88L21.8659 10.4H27.7939V11.992H20.0019ZM33.2645 0.48H34.9525L31.8805 12H30.1925L33.2645 0.48ZM40.584 10.776L39.536 9.736L42.376 6.96L39.536 4.184L40.584 3.144L44.392 6.96L40.584 10.776Z" fill="white"/>
</svg>
