<svg width="35" height="16" viewBox="0 0 35 16" fill="none" xmlns="http://www.w3.org/2000/svg">
<path d="M4.056 10.776L0.24 6.96L4.056 3.144L5.096 4.184L2.264 6.96L5.096 9.736L4.056 10.776ZM13.8941 12.24C13.0675 12.24 12.3741 12.04 11.8141 11.64C11.2541 11.2347 10.8301 10.688 10.5421 10C10.2541 9.312 10.1101 8.536 10.1101 7.672C10.1101 6.808 10.2515 6.032 10.5341 5.344C10.8221 4.656 11.2435 4.11467 11.7981 3.72C12.3581 3.32 13.0461 3.12 13.8621 3.12C14.6728 3.12 15.3715 3.32 15.9581 3.72C16.5501 4.11467 17.0061 4.656 17.3261 5.344C17.6461 6.02667 17.8061 6.80267 17.8061 7.672C17.8061 8.536 17.6461 9.31467 17.3261 10.008C17.0115 10.696 16.5608 11.24 15.9741 11.64C15.3928 12.04 14.6995 12.24 13.8941 12.24ZM9.83013 15.84V3.36H11.3181V9.576H11.5101V15.84H9.83013ZM13.6621 10.728C14.1955 10.728 14.6355 10.592 14.9821 10.32C15.3341 10.048 15.5955 9.68267 15.7661 9.224C15.9421 8.76 16.0301 8.24267 16.0301 7.672C16.0301 7.10667 15.9421 6.59467 15.7661 6.136C15.5955 5.67733 15.3315 5.312 14.9741 5.04C14.6168 4.768 14.1608 4.632 13.6061 4.632C13.0835 4.632 12.6515 4.76 12.3101 5.016C11.9741 5.272 11.7235 5.62933 11.5581 6.088C11.3981 6.54667 11.3181 7.07467 11.3181 7.672C11.3181 8.26933 11.3981 8.79733 11.5581 9.256C11.7181 9.71467 11.9715 10.0747 12.3181 10.336C12.6648 10.5973 13.1128 10.728 13.6621 10.728ZM23.1245 0.48H24.8125L21.7405 12H20.0525L23.1245 0.48ZM30.444 10.776L29.396 9.736L32.236 6.96L29.396 4.184L30.444 3.144L34.252 6.96L30.444 10.776Z" fill="white"/>
</svg>
